<svg width="251" height="184" viewBox="0 0 251 184" fill="none" xmlns="http://www.w3.org/2000/svg">
<g id="&#240;&#159;&#144;&#167; Big Logo">
<path id="Vector" d="M249.13 129.973C249.959 129.973 250.63 129.302 250.63 128.473C250.63 127.645 249.959 126.973 249.13 126.973V129.973ZM249.13 126.973H157.675V129.973H249.13V126.973Z" fill="#292928"/>
<path id="Vector_2" d="M227.545 107.867C211.466 76.3946 181.845 54.6199 145.215 55.5029C145.215 55.5029 121.054 63.5349 80.67 55.9159C61.7391 52.3556 36.7178 27.3056 36.7178 27.3056L36.7607 27.3625C34.4965 24.8988 32.1463 22.4636 29.71 20.0711C26.027 16.4681 21.8855 12.5091 14.8061 6.02939C12.5419 3.96443 7.95604 4.59104 7.97037 9.06274C7.97037 11.7685 8.29998 14.275 8.93053 16.9523C17.6293 54.0076 37.5489 98.4255 57.8269 129.03H61.6962L201.377 128.802C206.178 139.639 212.226 150.804 217.657 161.115C222.73 170.756 227.273 177.293 229.838 181.309C230.383 182.177 230.999 183.017 231.945 183.416C236.674 185.396 240.214 182.163 241.045 176.41C244.542 152.214 238.68 127.136 227.545 107.853V107.867Z" fill="url(#paint0_linear_369_1261)"/>
<path id="Vector_3" d="M1.98218 126.973C1.15375 126.973 0.482178 127.645 0.482178 128.473C0.482178 129.302 1.15375 129.973 1.98218 129.973V126.973ZM1.98218 129.973H200.68V126.973H1.98218V129.973Z" fill="#292928"/>
<g id="Cara">
<path id="Face" d="M128.499 108.67C154.876 108.67 176.258 84.3435 176.258 54.3351C176.258 24.3266 154.876 0 128.499 0C102.122 0 80.7395 24.3266 80.7395 54.3351C80.7395 84.3435 102.122 108.67 128.499 108.67Z" fill="#231F20"/>
<path id="Vector_4" d="M80.9387 59.2373C83.1154 86.9535 103.574 108.67 128.499 108.67C153.424 108.67 173.882 86.9392 176.059 59.2373H80.9387Z" fill="url(#paint1_linear_369_1261)"/>
<path id="Union" fill-rule="evenodd" clip-rule="evenodd" d="M175.977 47.8132C176.639 54.7004 175.945 60.2348 175.945 60.2348L174.379 61.3617C171.052 72.0861 163.091 79.6434 153.808 79.6434C141.531 79.6434 131.572 66.4337 131.572 50.1318C131.572 33.8298 141.531 20.6201 153.808 20.6201C159.111 20.6201 163.981 23.0839 167.803 27.1964C170.442 29.8036 172.282 33.0788 173.554 36.5472C174.892 39.9654 175.741 43.7752 175.977 47.8132ZM80.9386 59.2372C80.4405 56.6684 80.7634 52.0754 80.9606 49.8993C81.6352 34.2819 91.6642 20.6343 103.232 20.6343C115.209 20.6343 124.925 33.8402 124.928 50.1389C124.925 66.4376 115.209 79.6434 103.232 79.6434C93.9312 79.6434 85.6251 72.5475 82.3762 61.7442C81.7225 61.1811 81.1599 60.3785 80.9386 59.2372ZM124.928 50.1389C124.928 50.1413 124.928 50.1436 124.928 50.146V50.1318C124.928 50.1341 124.928 50.1365 124.928 50.1389Z" fill="white"/>
<path id="Vector_5" d="M143.366 58.4534H113.617V71.6346H143.366V58.4534Z" fill="white"/>
<path id="Beak" d="M137.211 69.9989L118.629 69.9786C117.732 69.9826 117.161 70.8198 117.616 71.5081L126.809 85.5696C127.247 86.2439 128.373 86.2495 128.832 85.5711L138.237 71.5295C138.696 70.8512 138.141 70.0084 137.243 69.9982L137.211 69.9989Z" fill="#F58120"/>
<path id="Eye Der" d="M152.766 64.8891C155.752 64.8891 158.173 62.4681 158.173 59.4816C158.173 56.4952 155.752 54.0742 152.766 54.0742C149.779 54.0742 147.358 56.4952 147.358 59.4816C147.358 62.4681 149.779 64.8891 152.766 64.8891Z" fill="#231F20"/>
<path id="Eye Izq" d="M104.639 64.8891C107.626 64.8891 110.047 62.4681 110.047 59.4816C110.047 56.4952 107.626 54.0742 104.639 54.0742C101.653 54.0742 99.2319 56.4952 99.2319 59.4816C99.2319 62.4681 101.653 64.8891 104.639 64.8891Z" fill="#231F20"/>
<g id="Cabeza">
<path id="Vector_6" d="M115.566 16.4864L104.911 14.1067L97.6407 17.1989C97.6407 17.1989 93.6288 19.5074 92.5617 20.6047C84.3813 29.0121 82.3611 39.6996 82.1762 40.7684C81.4364 43.6611 81.0238 46.6251 80.9954 49.2471C81.5929 45.2286 84.1395 37.5764 94.4112 33.6434C104 30.5369 116.961 32.3894 124.729 58.4241L127.93 44.9578L126.863 25.1647L115.581 16.4722L115.566 16.4864Z" fill="#231F20"/>
<path id="Vector_7" d="M85.3914 30.9078C85.3914 30.9078 110.559 13.2948 124.046 58.4529L127.247 44.9867L126.18 25.1936L114.898 16.5011L104.242 14.1213L96.972 17.2136L91.893 20.6193L85.4056 30.8935L85.3914 30.9078Z" fill="#231F20"/>
<path id="Vector_8" d="M176.087 49.1899C176.073 46.5821 175.689 43.7321 174.963 40.8679C174.978 40.8821 174.992 40.8964 174.992 40.8964C174.992 40.8964 174.821 40.2694 174.508 39.2292C174.437 38.9727 174.352 38.7162 174.266 38.4597C172.829 33.9709 169.358 24.5089 164.592 20.6187C163.411 19.6497 159.513 17.213 159.513 17.213L152.243 14.1207L141.587 16.5005L130.306 25.1929L129.239 44.9861L132.44 58.4523C140.179 32.5317 153.068 30.5794 162.643 33.6289C173 37.5477 175.518 45.1571 176.116 49.1899H176.087Z" fill="#231F20"/>
</g>
</g>
</g>
<defs>
<linearGradient id="paint0_linear_369_1261" x1="117.013" y1="149.992" x2="124.912" y2="83.7993" gradientUnits="userSpaceOnUse">
<stop stop-color="#6C6B71"/>
<stop offset="1" stop-color="#231F20"/>
</linearGradient>
<linearGradient id="paint1_linear_369_1261" x1="128.176" y1="77.8113" x2="128.499" y2="108.67" gradientUnits="userSpaceOnUse">
<stop stop-color="white"/>
<stop offset="1" stop-color="#D6D6D6"/>
</linearGradient>
</defs>
</svg>
