<svg width="316" height="242" viewBox="0 0 316 242" fill="none" xmlns="http://www.w3.org/2000/svg">
<path d="M296.02 139.386C274.348 96.9665 234.423 67.6181 185.054 68.8082C185.054 68.8082 152.488 79.6339 98.0575 69.3648C72.542 64.5662 38.8175 30.8031 38.8175 30.8031L38.8755 30.8799C35.8237 27.5592 32.6559 24.277 29.3723 21.0523C24.4083 16.1961 18.8262 10.86 9.28445 2.12653C6.23263 -0.656675 0.0517443 0.187883 0.0710596 6.21495C0.0710596 9.86191 0.515311 13.2401 1.36518 16.8487C13.0896 66.7928 39.9378 126.66 67.2689 167.909H72.4841L260.75 167.602C267.221 182.209 275.372 197.258 282.692 211.155C289.53 224.149 295.653 232.96 299.11 238.372C299.844 239.543 300.675 240.676 301.95 241.213C308.324 243.881 313.095 239.524 314.215 231.769C318.928 199.158 311.028 165.357 296.02 139.367V139.386Z" fill="url(#paint0_linear_286_840)"/>
<defs>
<linearGradient id="paint0_linear_286_840" x1="147.041" y1="196.164" x2="157.687" y2="106.947" gradientUnits="userSpaceOnUse">
<stop stop-color="#6C6B71"/>
<stop offset="1" stop-color="#231F20"/>
</linearGradient>
</defs>
</svg>
