<svg width="370" height="106" viewBox="0 0 370 106" fill="none" xmlns="http://www.w3.org/2000/svg">
<path d="M46.453 105.553C72.0732 105.553 92.8426 81.9245 92.8426 52.7767C92.8426 23.6289 72.0732 0 46.453 0C20.8327 0 0.0633545 23.6289 0.0633545 52.7767C0.0633545 81.9245 20.8327 105.553 46.453 105.553Z" fill="#231F20"/>
<path d="M0.256836 57.5383C2.37111 84.4596 22.2425 105.554 46.453 105.554C70.6635 105.554 90.5349 84.4457 92.6491 57.5383H0.256836Z" fill="url(#paint0_linear_452_6845)"/>
<path fill-rule="evenodd" clip-rule="evenodd" d="M92.5699 46.4449C93.2117 53.1332 92.5385 58.5072 92.5385 58.5072L91.0171 59.6017C87.7855 70.0186 80.0529 77.3593 71.0366 77.3593C59.111 77.3593 49.4379 64.5284 49.4379 48.694C49.4379 32.8596 59.111 20.0288 71.0366 20.0288C76.1872 20.0288 80.9176 22.4221 84.6301 26.4172C87.1928 28.9485 88.9791 32.1279 90.2145 35.4951C91.5152 38.8172 92.3403 42.5201 92.5699 46.4449ZM0.256726 57.5383C-0.226909 55.0441 0.0863551 50.585 0.277876 48.4704C0.932306 33.3 10.674 20.0425 21.9107 20.0425C33.5444 20.0425 42.9816 32.8697 42.9843 48.7009C42.9816 64.5321 33.5444 77.3592 21.9107 77.3592C12.8765 77.3592 4.80873 70.4668 1.65295 59.9733C1.01804 59.4264 0.471664 58.6468 0.256726 57.5383Z" fill="white"/>
<path d="M60.8933 56.7769H31.9983V69.5801H60.8933V56.7769Z" fill="white"/>
<path d="M54.9148 67.9913L36.8659 67.9715C35.9944 67.9755 35.4405 68.7887 35.882 69.4571L44.8119 83.1154C45.2372 83.7704 46.3307 83.7758 46.7768 83.1169L55.9116 69.478C56.3577 68.8191 55.8182 68.0005 54.9464 67.9906L54.9148 67.9913Z" fill="#F58120"/>
<path d="M70.0236 63.028C72.9244 63.028 75.2759 60.6765 75.2759 57.7757C75.2759 54.8749 72.9244 52.5234 70.0236 52.5234C67.1228 52.5234 64.7712 54.8749 64.7712 57.7757C64.7712 60.6765 67.1228 63.028 70.0236 63.028Z" fill="#231F20"/>
<path d="M23.2777 63.028C26.1785 63.028 28.5301 60.6765 28.5301 57.7757C28.5301 54.8749 26.1785 52.5234 23.2777 52.5234C20.3769 52.5234 18.0254 54.8749 18.0254 57.7757C18.0254 60.6765 20.3769 63.028 23.2777 63.028Z" fill="#231F20"/>
<path d="M33.8916 16.0136L23.5414 13.7021L16.48 16.7056C16.48 16.7056 12.5831 18.9479 11.5467 20.0137C3.60088 28.18 1.63861 38.561 1.45897 39.5991C0.740391 42.4089 0.339649 45.2878 0.312012 47.8346C0.8924 43.9314 3.36596 36.4986 13.3431 32.6785C22.657 29.6611 35.2459 31.4604 42.7909 56.7484L45.9001 43.6684L44.8637 24.4429L33.9054 15.9997L33.8916 16.0136Z" fill="#231F20"/>
<path d="M4.58203 30.0213C4.58203 30.0213 29.0274 12.9135 42.1276 56.7765L45.2369 43.6965L44.2004 24.471L33.2422 16.0278L22.8919 13.7163L15.8305 16.7199L10.8972 20.028L4.59585 30.0075L4.58203 30.0213Z" fill="#231F20"/>
<path d="M92.6766 47.7792C92.6628 45.2462 92.2897 42.478 91.5849 39.6959C91.5987 39.7097 91.6126 39.7236 91.6126 39.7236C91.6126 39.7236 91.4467 39.1146 91.1427 38.1042C91.0736 37.855 90.9907 37.6059 90.9078 37.3567C89.5121 32.9967 86.1403 23.8061 81.511 20.0275C80.3641 19.0863 76.5777 16.7194 76.5777 16.7194L69.5163 13.7159L59.1661 16.0273L48.2078 24.4705L47.1714 43.696L50.2806 56.776C57.798 31.5988 70.3178 29.7025 79.6179 32.6645C89.6779 36.4709 92.1239 43.8621 92.7042 47.7792H92.6766Z" fill="#231F20"/>
<path d="M121.44 26.296V21.4H149.088V26.296H137.856V55H132.432V26.296H121.44ZM157.164 50.056C161.292 49.144 163.98 45.112 163.98 41.992L157.164 43.864C151.596 45.352 152.028 48.184 152.028 48.184C152.172 50.872 157.164 50.056 157.164 50.056ZM172.764 54.904C172.764 54.904 165.036 55.624 165.324 47.656L164.124 47.608C163.644 50.728 161.292 54.472 156.492 55C146.172 56.152 146.412 49.048 146.412 49.048C146.364 42.328 156.492 40.168 156.492 40.168L164.076 38.296C164.076 36.568 162.684 33.688 158.268 33.688C151.836 33.688 151.116 37.24 151.116 37.24L146.412 35.416C146.412 35.416 148.284 29.08 158.268 29.08C170.508 29.08 169.404 38.488 169.404 38.488V47.8C169.404 47.8 169.164 50.104 172.86 50.104L172.764 54.904ZM181.917 41.656V55H176.445V29.176H182.349L180.861 36.04H182.253C182.877 31.528 185.805 29.464 189.357 29.176C199.965 28.312 199.485 40.072 199.485 40.072V55H194.013V41.992C194.013 41.992 194.685 34.024 188.733 34.312C188.733 34.312 181.917 34.264 181.917 41.656ZM209.678 29.128V55H204.301V29.128H209.678ZM203.245 22.456C203.245 20.392 204.925 18.712 206.989 18.712C209.006 18.712 210.685 20.392 210.685 22.456C210.685 24.52 209.006 26.152 206.989 26.152C204.925 26.152 203.245 24.52 203.245 22.456ZM224.672 50.056C228.8 49.144 231.488 45.112 231.488 41.992L224.672 43.864C219.104 45.352 219.536 48.184 219.536 48.184C219.68 50.872 224.672 50.056 224.672 50.056ZM240.272 54.904C240.272 54.904 232.544 55.624 232.832 47.656L231.632 47.608C231.152 50.728 228.8 54.472 224 55C213.68 56.152 213.92 49.048 213.92 49.048C213.872 42.328 224 40.168 224 40.168L231.584 38.296C231.584 36.568 230.192 33.688 225.776 33.688C219.344 33.688 218.624 37.24 218.624 37.24L213.92 35.416C213.92 35.416 215.792 29.08 225.776 29.08C238.016 29.08 236.912 38.488 236.912 38.488V47.8C236.912 47.8 236.672 50.104 240.368 50.104L240.272 54.904ZM258.189 26.296V21.4H285.837V26.296H274.605V55H269.181V26.296H258.189ZM295.478 34.072C295.478 34.072 289.094 34.504 289.43 39.448L302.582 37.72C302.582 36.808 301.574 33.544 295.478 34.072ZM307.718 39.448V40.744L289.382 43.096C289.382 50.392 296.342 50.104 296.342 50.104C302.102 50.104 302.582 44.968 302.582 44.968L307.478 46.552C307.478 46.552 306.326 55 296.534 55C296.534 55 283.958 55.576 283.958 42.088C283.958 28.456 296.534 29.128 296.534 29.128C307.574 29.128 307.718 39.064 307.718 39.448ZM317.505 54.616C311.073 52.456 311.601 45.352 311.601 45.352V21.4H316.977V46.504C316.977 46.504 316.737 49.96 320.433 49.96L320.577 55C320.577 55 319.041 55.144 317.505 54.616ZM329.585 54.616C323.153 52.456 323.681 45.352 323.681 45.352V21.4H329.057V46.504C329.057 46.504 328.817 49.96 332.513 49.96L332.657 55C332.657 55 331.121 55.144 329.585 54.616ZM347.014 50.152C349.174 50.152 353.686 49.528 353.686 42.088C353.686 34.6 349.27 34.024 347.014 34.024C344.614 34.024 340.342 34.6 340.342 42.088C340.342 49.528 344.71 50.152 347.014 50.152ZM359.062 42.088C359.062 53.8 350.758 55 347.014 55C343.126 55 334.966 53.8 334.966 42.088C334.966 30.136 343.126 29.128 347.014 29.128C350.47 29.128 359.062 30.136 359.062 42.088Z" fill="#242021"/>
<path d="M127.704 85.336C125.64 85.336 124.016 84.848 122.832 83.872C121.648 82.896 121.048 81.56 121.032 79.864H123.504C123.52 80.888 123.896 81.704 124.632 82.312C125.384 82.904 126.408 83.2 127.704 83.2C128.856 83.2 129.768 82.928 130.44 82.384C131.128 81.824 131.472 81.088 131.472 80.176C131.472 78.688 130.52 77.816 128.616 77.56L126.408 77.248C123.192 76.816 121.584 75.304 121.584 72.712C121.584 71.24 122.128 70.064 123.216 69.184C124.32 68.304 125.776 67.864 127.584 67.864C129.456 67.864 130.936 68.288 132.024 69.136C133.128 69.984 133.696 71.144 133.728 72.616H131.256C131.224 71.8 130.88 71.16 130.224 70.696C129.568 70.216 128.688 69.976 127.584 69.976C126.528 69.976 125.68 70.216 125.04 70.696C124.4 71.16 124.08 71.784 124.08 72.568C124.08 73.896 125.096 74.704 127.128 74.992L129.216 75.28C132.384 75.712 133.968 77.296 133.968 80.032C133.968 81.648 133.408 82.936 132.288 83.896C131.168 84.856 129.64 85.336 127.704 85.336ZM137.422 85V73.456H139.486V75.328C139.806 74.08 140.646 73.456 142.006 73.456H144.214V75.496H141.79C140.43 75.496 139.75 76.288 139.75 77.872V85H137.422ZM145.191 85V81.712H148.071V85H145.191ZM164.733 85.336C162.669 85.336 161.045 84.848 159.861 83.872C158.677 82.896 158.077 81.56 158.061 79.864H160.533C160.549 80.888 160.925 81.704 161.661 82.312C162.413 82.904 163.437 83.2 164.733 83.2C165.885 83.2 166.797 82.928 167.469 82.384C168.157 81.824 168.501 81.088 168.501 80.176C168.501 78.688 167.549 77.816 165.645 77.56L163.437 77.248C160.221 76.816 158.613 75.304 158.613 72.712C158.613 71.24 159.157 70.064 160.245 69.184C161.349 68.304 162.805 67.864 164.613 67.864C166.485 67.864 167.965 68.288 169.053 69.136C170.157 69.984 170.725 71.144 170.757 72.616H168.285C168.253 71.8 167.909 71.16 167.253 70.696C166.597 70.216 165.717 69.976 164.613 69.976C163.557 69.976 162.709 70.216 162.069 70.696C161.429 71.16 161.109 71.784 161.109 72.568C161.109 73.896 162.125 74.704 164.157 74.992L166.245 75.28C169.413 75.712 170.997 77.296 170.997 80.032C170.997 81.648 170.437 82.936 169.317 83.896C168.197 84.856 166.669 85.336 164.733 85.336ZM179.659 85.336C177.899 85.336 176.467 84.776 175.363 83.656C174.259 82.52 173.707 81.04 173.707 79.216C173.707 77.392 174.259 75.92 175.363 74.8C176.467 73.68 177.899 73.12 179.659 73.12C181.435 73.12 182.867 73.68 183.955 74.8C185.059 75.92 185.611 77.392 185.611 79.216C185.611 81.04 185.059 82.52 183.955 83.656C182.867 84.776 181.435 85.336 179.659 85.336ZM176.107 79.216C176.107 80.416 176.435 81.384 177.091 82.12C177.747 82.856 178.603 83.224 179.659 83.224C180.731 83.224 181.587 82.856 182.227 82.12C182.883 81.384 183.211 80.416 183.211 79.216C183.211 78.032 182.883 77.072 182.227 76.336C181.587 75.6 180.731 75.232 179.659 75.232C178.603 75.232 177.747 75.6 177.091 76.336C176.435 77.072 176.107 78.032 176.107 79.216ZM190.105 71.344C190.105 70.336 190.377 69.56 190.921 69.016C191.481 68.472 192.265 68.2 193.273 68.2H197.017V70.24H193.753C192.857 70.24 192.409 70.688 192.409 71.584V73.456H196.297V75.496H192.409V85H190.105V75.496H187.057V73.456H190.105V71.344ZM203.916 85C202.908 85 202.18 84.784 201.732 84.352C201.284 83.92 201.06 83.208 201.06 82.216V75.496H198.036V73.456H201.06V70H203.388V73.456H207.012V75.496H203.388V81.76C203.388 82.192 203.476 82.504 203.652 82.696C203.844 82.872 204.164 82.96 204.612 82.96H207.012V85H203.916ZM212.201 85L208.625 73.456H211.049L213.617 82.408L216.185 73.456H218.849L221.417 82.408L223.985 73.456H226.409L222.833 85H220.097L217.529 76.096L214.937 85H212.201ZM232.465 85.336C231.137 85.336 230.081 85.016 229.297 84.376C228.513 83.72 228.121 82.84 228.121 81.736C228.121 80.664 228.481 79.8 229.201 79.144C229.921 78.472 230.969 78.096 232.345 78.016L235.849 77.824V77.176C235.849 76.424 235.658 75.88 235.274 75.544C234.906 75.208 234.322 75.04 233.521 75.04C232.737 75.04 232.145 75.168 231.745 75.424C231.361 75.664 231.121 76.08 231.025 76.672H228.697C228.953 74.304 230.617 73.12 233.689 73.12C235.082 73.12 236.154 73.464 236.905 74.152C237.674 74.824 238.058 75.792 238.058 77.056V82.696C238.058 82.952 238.186 83.08 238.442 83.08H239.426V85H237.554C236.721 85 236.305 84.6 236.305 83.8V83.464C235.586 84.712 234.306 85.336 232.465 85.336ZM230.449 81.664C230.449 82.192 230.649 82.616 231.049 82.936C231.465 83.256 232.026 83.416 232.73 83.416C233.69 83.416 234.45 83.152 235.01 82.624C235.569 82.08 235.849 81.328 235.849 80.368V79.624L232.633 79.864C231.913 79.912 231.369 80.104 231.001 80.44C230.633 80.76 230.449 81.168 230.449 81.664ZM242.36 85V73.456H244.424V75.328C244.744 74.08 245.584 73.456 246.944 73.456H249.152V75.496H246.728C245.368 75.496 244.688 76.288 244.688 77.872V85H242.36ZM256.198 85.336C254.47 85.336 253.078 84.776 252.022 83.656C250.966 82.536 250.438 81.04 250.438 79.168C250.438 77.328 250.95 75.864 251.974 74.776C253.014 73.672 254.366 73.12 256.03 73.12C257.742 73.12 259.094 73.64 260.086 74.68C261.078 75.704 261.574 77.104 261.574 78.88C261.574 79.136 261.55 79.504 261.502 79.984H252.742C252.79 81.04 253.118 81.872 253.726 82.48C254.35 83.072 255.174 83.368 256.198 83.368C257.574 83.368 258.502 82.816 258.982 81.712H261.358C260.99 82.848 260.366 83.736 259.486 84.376C258.606 85.016 257.51 85.336 256.198 85.336ZM252.742 78.16H259.222V78.04C259.222 77.128 258.934 76.392 258.358 75.832C257.798 75.272 257.022 74.992 256.03 74.992C255.07 74.992 254.294 75.288 253.702 75.88C253.11 76.456 252.79 77.216 252.742 78.16ZM271.744 85V68.2H282.112V70.456H274.144V75.04H282.112V77.296H274.144V82.744H282.112V85H271.744ZM285.694 85V73.456H287.758V74.968C288.446 73.736 289.662 73.12 291.406 73.12C292.846 73.12 293.974 73.552 294.79 74.416C295.606 75.264 296.014 76.472 296.014 78.04V85H293.686V78.256C293.686 76.24 292.782 75.232 290.974 75.232C290.078 75.232 289.358 75.52 288.814 76.096C288.286 76.656 288.022 77.4 288.022 78.328V85H285.694ZM302.474 89.32C301.242 89.32 300.314 89.056 299.69 88.528C299.066 88.016 298.754 87.32 298.754 86.44C298.754 85.368 299.258 84.584 300.266 84.088C299.562 83.624 299.21 83 299.21 82.216C299.21 81.08 299.874 80.344 301.202 80.008C300.178 79.32 299.666 78.344 299.666 77.08C299.666 75.928 300.082 74.984 300.914 74.248C301.746 73.496 302.866 73.12 304.274 73.12C305.17 73.12 305.97 73.32 306.674 73.72C307.378 74.12 307.85 74.632 308.09 75.256V74.896C308.09 73.936 308.57 73.456 309.53 73.456H311.234V75.496H309.386C309.05 75.496 308.882 75.664 308.882 76V77.224C308.882 78.408 308.466 79.368 307.634 80.104C306.802 80.824 305.722 81.184 304.394 81.184H302.402C301.65 81.184 301.274 81.496 301.274 82.12C301.274 82.424 301.378 82.656 301.586 82.816C301.81 82.976 302.082 83.056 302.402 83.056H306.602C307.722 83.056 308.602 83.312 309.242 83.824C309.898 84.336 310.226 85.064 310.226 86.008C310.226 87.016 309.914 87.816 309.29 88.408C308.666 89.016 307.722 89.32 306.458 89.32H302.474ZM300.986 86.224C300.986 87.104 301.57 87.544 302.738 87.544H306.314C306.81 87.544 307.21 87.424 307.514 87.184C307.834 86.944 307.994 86.576 307.994 86.08C307.994 85.696 307.85 85.392 307.562 85.168C307.29 84.944 306.914 84.832 306.434 84.832H302.81C302.202 84.832 301.746 84.96 301.442 85.216C301.138 85.488 300.986 85.824 300.986 86.224ZM302.522 75.544C302.106 75.944 301.898 76.48 301.898 77.152C301.898 77.824 302.106 78.36 302.522 78.76C302.954 79.16 303.538 79.36 304.274 79.36C305.026 79.36 305.61 79.16 306.026 78.76C306.442 78.36 306.65 77.824 306.65 77.152C306.65 76.48 306.434 75.944 306.002 75.544C305.586 75.144 305.01 74.944 304.274 74.944C303.522 74.944 302.938 75.144 302.522 75.544ZM313.888 85V73.456H316.216V85H313.888ZM313.744 71.128V68.368H316.336V71.128H313.744ZM320.321 85V73.456H322.385V74.968C323.073 73.736 324.289 73.12 326.033 73.12C327.473 73.12 328.601 73.552 329.417 74.416C330.233 75.264 330.641 76.472 330.641 78.04V85H328.313V78.256C328.313 76.24 327.409 75.232 325.601 75.232C324.705 75.232 323.985 75.52 323.441 76.096C322.913 76.656 322.649 77.4 322.649 78.328V85H320.321ZM339.597 85.336C337.869 85.336 336.477 84.776 335.421 83.656C334.365 82.536 333.837 81.04 333.837 79.168C333.837 77.328 334.349 75.864 335.373 74.776C336.413 73.672 337.765 73.12 339.429 73.12C341.141 73.12 342.493 73.64 343.485 74.68C344.477 75.704 344.973 77.104 344.973 78.88C344.973 79.136 344.949 79.504 344.901 79.984H336.141C336.189 81.04 336.517 81.872 337.125 82.48C337.749 83.072 338.573 83.368 339.597 83.368C340.973 83.368 341.901 82.816 342.381 81.712H344.757C344.389 82.848 343.765 83.736 342.885 84.376C342.005 85.016 340.909 85.336 339.597 85.336ZM336.141 78.16H342.621V78.04C342.621 77.128 342.333 76.392 341.757 75.832C341.197 75.272 340.421 74.992 339.429 74.992C338.469 74.992 337.693 75.288 337.101 75.88C336.509 76.456 336.189 77.216 336.141 78.16ZM353.226 85.336C351.498 85.336 350.106 84.776 349.05 83.656C347.994 82.536 347.466 81.04 347.466 79.168C347.466 77.328 347.978 75.864 349.002 74.776C350.042 73.672 351.394 73.12 353.058 73.12C354.77 73.12 356.122 73.64 357.114 74.68C358.106 75.704 358.602 77.104 358.602 78.88C358.602 79.136 358.578 79.504 358.53 79.984H349.77C349.818 81.04 350.146 81.872 350.754 82.48C351.378 83.072 352.202 83.368 353.226 83.368C354.602 83.368 355.53 82.816 356.01 81.712H358.386C358.018 82.848 357.394 83.736 356.514 84.376C355.634 85.016 354.538 85.336 353.226 85.336ZM349.77 78.16H356.25V78.04C356.25 77.128 355.962 76.392 355.386 75.832C354.826 75.272 354.05 74.992 353.058 74.992C352.098 74.992 351.322 75.288 350.73 75.88C350.138 76.456 349.818 77.216 349.77 78.16ZM361.886 85V73.456H363.95V75.328C364.27 74.08 365.11 73.456 366.47 73.456H368.678V75.496H366.254C364.894 75.496 364.214 76.288 364.214 77.872V85H361.886Z" fill="#767382"/>
<defs>
<linearGradient id="paint0_linear_452_6845" x1="46.1396" y1="75.5796" x2="46.453" y2="105.554" gradientUnits="userSpaceOnUse">
<stop stop-color="white"/>
<stop offset="1" stop-color="#D6D6D6"/>
</linearGradient>
</defs>
</svg>
