<svg width="531" height="179" viewBox="0 0 531 179" fill="none" xmlns="http://www.w3.org/2000/svg">
<path d="M242 126.223C242.828 126.223 243.5 125.551 243.5 124.723C243.5 123.894 242.828 123.223 242 123.223V126.223ZM242 123.223H153V126.223H242V123.223Z" fill="#292928"/>
<path d="M220.931 104.758C205.339 74.1818 176.613 53.0273 141.092 53.8851C141.092 53.8851 117.662 61.6884 78.4999 54.2864C60.1419 50.8275 35.8776 26.4908 35.8776 26.4908L35.9193 26.5462C33.7235 24.1526 31.4444 21.7868 29.0819 19.4624C25.5104 15.962 21.4941 12.1158 14.6289 5.8206C12.4332 3.81445 7.98614 4.42321 8.00003 8.76756C8.00003 11.3963 8.31967 13.8314 8.93114 16.4324C17.3667 52.4324 36.6836 95.5854 56.348 125.318H60.1002L195.555 125.096C200.211 135.625 206.075 146.472 211.342 156.489C216.262 165.856 220.667 172.206 223.155 176.108C223.683 176.952 224.28 177.768 225.198 178.156C229.784 180.079 233.216 176.938 234.022 171.349C237.413 147.842 231.729 123.478 220.931 104.744V104.758Z" fill="url(#paint0_linear_452_6844)"/>
<path d="M2 123.223C1.17157 123.223 0.5 123.894 0.5 124.723C0.5 125.551 1.17157 126.223 2 126.223V123.223ZM2 126.223H195V123.223H2V126.223Z" fill="#292928"/>
<path d="M124.858 105.553C150.479 105.553 171.248 81.9245 171.248 52.7767C171.248 23.629 150.479 7.62939e-06 124.858 7.62939e-06C99.2381 7.62939e-06 78.4688 23.629 78.4688 52.7767C78.4688 81.9245 99.2381 105.553 124.858 105.553Z" fill="#231F20"/>
<path d="M78.6623 57.5383C80.7766 84.4596 100.648 105.554 124.858 105.554C149.069 105.554 168.94 84.4457 171.055 57.5383H78.6623Z" fill="url(#paint1_linear_452_6844)"/>
<path fill-rule="evenodd" clip-rule="evenodd" d="M170.975 46.445C171.617 53.1332 170.944 58.5072 170.944 58.5072L169.423 59.6017C166.191 70.0186 158.458 77.3593 149.442 77.3593C137.517 77.3593 127.843 64.5284 127.843 48.694C127.843 32.8596 137.517 20.0288 149.442 20.0288C154.593 20.0288 159.323 22.4221 163.036 26.4172C165.598 28.9485 167.385 32.128 168.62 35.4951C169.921 38.8172 170.746 42.5201 170.975 46.445ZM78.6622 57.5383C78.1786 55.0441 78.4919 50.585 78.6834 48.4704C79.3378 33.3 89.0795 20.0425 100.316 20.0425C111.95 20.0425 121.387 32.8697 121.39 48.7009C121.387 64.5321 111.95 77.3592 100.316 77.3592C91.2821 77.3592 83.2142 70.4668 80.0585 59.9733C79.4236 59.4264 78.8772 58.6468 78.6622 57.5383Z" fill="white"/>
<path d="M139.299 56.7769H110.404V69.5801H139.299V56.7769Z" fill="white"/>
<path d="M133.32 67.9913L115.271 67.9715C114.4 67.9755 113.846 68.7887 114.287 69.4572L123.217 83.1154C123.643 83.7704 124.736 83.7758 125.182 83.1169L134.317 69.478C134.763 68.8191 134.224 68.0005 133.352 67.9906L133.32 67.9913Z" fill="#F58120"/>
<path d="M148.429 63.0281C151.33 63.0281 153.681 60.6765 153.681 57.7757C153.681 54.8749 151.33 52.5234 148.429 52.5234C145.528 52.5234 143.177 54.8749 143.177 57.7757C143.177 60.6765 145.528 63.0281 148.429 63.0281Z" fill="#231F20"/>
<path d="M101.683 63.0281C104.584 63.0281 106.936 60.6765 106.936 57.7757C106.936 54.8749 104.584 52.5234 101.683 52.5234C98.7825 52.5234 96.431 54.8749 96.431 57.7757C96.431 60.6765 98.7825 63.0281 101.683 63.0281Z" fill="#231F20"/>
<path d="M112.297 16.0136L101.947 13.7021L94.8855 16.7056C94.8855 16.7056 90.9886 18.9479 89.9522 20.0137C82.0064 28.18 80.0441 38.561 79.8645 39.5991C79.1459 42.4089 78.7452 45.2878 78.7175 47.8346C79.2979 43.9314 81.7715 36.4986 91.7486 32.6785C101.062 29.6611 113.651 31.4604 121.196 56.7484L124.306 43.6684L123.269 24.4429L112.311 15.9997L112.297 16.0136Z" fill="#231F20"/>
<path d="M82.9875 30.0213C82.9875 30.0213 107.433 12.9135 120.533 56.7765L123.642 43.6965L122.606 24.471L111.648 16.0278L101.297 13.7163L94.236 16.7199L89.3027 20.028L83.0014 30.0075L82.9875 30.0213Z" fill="#231F20"/>
<path d="M171.082 47.7792C171.068 45.2462 170.695 42.478 169.99 39.6959C170.004 39.7097 170.018 39.7236 170.018 39.7236C170.018 39.7236 169.852 39.1146 169.548 38.1042C169.479 37.855 169.396 37.6059 169.313 37.3567C167.918 32.9967 164.546 23.8061 159.917 20.0275C158.77 19.0863 154.983 16.7194 154.983 16.7194L147.922 13.7159L137.572 16.0273L126.613 24.4705L125.577 43.696L128.686 56.776C136.204 31.5988 148.723 29.7025 158.023 32.6645C168.083 36.4709 170.529 43.8621 171.11 47.7792H171.082Z" fill="#231F20"/>
<path d="M282.44 62.296V57.4H310.088V62.296H298.856V91H293.432V62.296H282.44ZM318.164 86.056C322.292 85.144 324.98 81.112 324.98 77.992L318.164 79.864C312.596 81.352 313.028 84.184 313.028 84.184C313.172 86.872 318.164 86.056 318.164 86.056ZM333.764 90.904C333.764 90.904 326.036 91.624 326.324 83.656L325.124 83.608C324.644 86.728 322.292 90.472 317.492 91C307.172 92.152 307.412 85.048 307.412 85.048C307.364 78.328 317.492 76.168 317.492 76.168L325.076 74.296C325.076 72.568 323.684 69.688 319.268 69.688C312.836 69.688 312.116 73.24 312.116 73.24L307.412 71.416C307.412 71.416 309.284 65.08 319.268 65.08C331.508 65.08 330.404 74.488 330.404 74.488V83.8C330.404 83.8 330.164 86.104 333.86 86.104L333.764 90.904ZM342.917 77.656V91H337.445V65.176H343.349L341.861 72.04H343.253C343.877 67.528 346.805 65.464 350.357 65.176C360.965 64.312 360.485 76.072 360.485 76.072V91H355.013V77.992C355.013 77.992 355.685 70.024 349.733 70.312C349.733 70.312 342.917 70.264 342.917 77.656ZM370.678 65.128V91H365.301V65.128H370.678ZM364.245 58.456C364.245 56.392 365.925 54.712 367.989 54.712C370.006 54.712 371.685 56.392 371.685 58.456C371.685 60.52 370.006 62.152 367.989 62.152C365.925 62.152 364.245 60.52 364.245 58.456ZM385.672 86.056C389.8 85.144 392.488 81.112 392.488 77.992L385.672 79.864C380.104 81.352 380.536 84.184 380.536 84.184C380.68 86.872 385.672 86.056 385.672 86.056ZM401.272 90.904C401.272 90.904 393.544 91.624 393.832 83.656L392.632 83.608C392.152 86.728 389.8 90.472 385 91C374.68 92.152 374.92 85.048 374.92 85.048C374.872 78.328 385 76.168 385 76.168L392.584 74.296C392.584 72.568 391.192 69.688 386.776 69.688C380.344 69.688 379.624 73.24 379.624 73.24L374.92 71.416C374.92 71.416 376.792 65.08 386.776 65.08C399.016 65.08 397.912 74.488 397.912 74.488V83.8C397.912 83.8 397.672 86.104 401.368 86.104L401.272 90.904ZM419.189 62.296V57.4H446.837V62.296H435.605V91H430.181V62.296H419.189ZM456.478 70.072C456.478 70.072 450.094 70.504 450.43 75.448L463.582 73.72C463.582 72.808 462.574 69.544 456.478 70.072ZM468.718 75.448V76.744L450.382 79.096C450.382 86.392 457.342 86.104 457.342 86.104C463.102 86.104 463.582 80.968 463.582 80.968L468.478 82.552C468.478 82.552 467.326 91 457.534 91C457.534 91 444.958 91.576 444.958 78.088C444.958 64.456 457.534 65.128 457.534 65.128C468.574 65.128 468.718 75.064 468.718 75.448ZM478.505 90.616C472.073 88.456 472.601 81.352 472.601 81.352V57.4H477.977V82.504C477.977 82.504 477.737 85.96 481.433 85.96L481.577 91C481.577 91 480.041 91.144 478.505 90.616ZM490.585 90.616C484.153 88.456 484.681 81.352 484.681 81.352V57.4H490.057V82.504C490.057 82.504 489.817 85.96 493.513 85.96L493.657 91C493.657 91 492.121 91.144 490.585 90.616ZM508.014 86.152C510.174 86.152 514.686 85.528 514.686 78.088C514.686 70.6 510.27 70.024 508.014 70.024C505.614 70.024 501.342 70.6 501.342 78.088C501.342 85.528 505.71 86.152 508.014 86.152ZM520.062 78.088C520.062 89.8 511.758 91 508.014 91C504.126 91 495.966 89.8 495.966 78.088C495.966 66.136 504.126 65.128 508.014 65.128C511.47 65.128 520.062 66.136 520.062 78.088Z" fill="#242021"/>
<path d="M288.704 121.336C286.64 121.336 285.016 120.848 283.832 119.872C282.648 118.896 282.048 117.56 282.032 115.864H284.504C284.52 116.888 284.896 117.704 285.632 118.312C286.384 118.904 287.408 119.2 288.704 119.2C289.856 119.2 290.768 118.928 291.44 118.384C292.128 117.824 292.472 117.088 292.472 116.176C292.472 114.688 291.52 113.816 289.616 113.56L287.408 113.248C284.192 112.816 282.584 111.304 282.584 108.712C282.584 107.24 283.128 106.064 284.216 105.184C285.32 104.304 286.776 103.864 288.584 103.864C290.456 103.864 291.936 104.288 293.024 105.136C294.128 105.984 294.696 107.144 294.728 108.616H292.256C292.224 107.8 291.88 107.16 291.224 106.696C290.568 106.216 289.688 105.976 288.584 105.976C287.528 105.976 286.68 106.216 286.04 106.696C285.4 107.16 285.08 107.784 285.08 108.568C285.08 109.896 286.096 110.704 288.128 110.992L290.216 111.28C293.384 111.712 294.968 113.296 294.968 116.032C294.968 117.648 294.408 118.936 293.288 119.896C292.168 120.856 290.64 121.336 288.704 121.336ZM298.422 121V109.456H300.486V111.328C300.806 110.08 301.646 109.456 303.006 109.456H305.214V111.496H302.79C301.43 111.496 300.75 112.288 300.75 113.872V121H298.422ZM306.191 121V117.712H309.071V121H306.191ZM325.733 121.336C323.669 121.336 322.045 120.848 320.861 119.872C319.677 118.896 319.077 117.56 319.061 115.864H321.533C321.549 116.888 321.925 117.704 322.661 118.312C323.413 118.904 324.437 119.2 325.733 119.2C326.885 119.2 327.797 118.928 328.469 118.384C329.157 117.824 329.501 117.088 329.501 116.176C329.501 114.688 328.549 113.816 326.645 113.56L324.437 113.248C321.221 112.816 319.613 111.304 319.613 108.712C319.613 107.24 320.157 106.064 321.245 105.184C322.349 104.304 323.805 103.864 325.613 103.864C327.485 103.864 328.965 104.288 330.053 105.136C331.157 105.984 331.725 107.144 331.757 108.616H329.285C329.253 107.8 328.909 107.16 328.253 106.696C327.597 106.216 326.717 105.976 325.613 105.976C324.557 105.976 323.709 106.216 323.069 106.696C322.429 107.16 322.109 107.784 322.109 108.568C322.109 109.896 323.125 110.704 325.157 110.992L327.245 111.28C330.413 111.712 331.997 113.296 331.997 116.032C331.997 117.648 331.437 118.936 330.317 119.896C329.197 120.856 327.669 121.336 325.733 121.336ZM340.659 121.336C338.899 121.336 337.467 120.776 336.363 119.656C335.259 118.52 334.707 117.04 334.707 115.216C334.707 113.392 335.259 111.92 336.363 110.8C337.467 109.68 338.899 109.12 340.659 109.12C342.435 109.12 343.867 109.68 344.955 110.8C346.059 111.92 346.611 113.392 346.611 115.216C346.611 117.04 346.059 118.52 344.955 119.656C343.867 120.776 342.435 121.336 340.659 121.336ZM337.107 115.216C337.107 116.416 337.435 117.384 338.091 118.12C338.747 118.856 339.603 119.224 340.659 119.224C341.731 119.224 342.587 118.856 343.227 118.12C343.883 117.384 344.211 116.416 344.211 115.216C344.211 114.032 343.883 113.072 343.227 112.336C342.587 111.6 341.731 111.232 340.659 111.232C339.603 111.232 338.747 111.6 338.091 112.336C337.435 113.072 337.107 114.032 337.107 115.216ZM351.105 107.344C351.105 106.336 351.377 105.56 351.921 105.016C352.481 104.472 353.265 104.2 354.273 104.2H358.017V106.24H354.753C353.857 106.24 353.409 106.688 353.409 107.584V109.456H357.297V111.496H353.409V121H351.105V111.496H348.057V109.456H351.105V107.344ZM364.916 121C363.908 121 363.18 120.784 362.732 120.352C362.284 119.92 362.06 119.208 362.06 118.216V111.496H359.036V109.456H362.06V106H364.388V109.456H368.012V111.496H364.388V117.76C364.388 118.192 364.476 118.504 364.652 118.696C364.844 118.872 365.164 118.96 365.612 118.96H368.012V121H364.916ZM373.201 121L369.625 109.456H372.049L374.617 118.408L377.185 109.456H379.849L382.417 118.408L384.985 109.456H387.409L383.833 121H381.097L378.529 112.096L375.937 121H373.201ZM393.465 121.336C392.137 121.336 391.081 121.016 390.297 120.376C389.513 119.72 389.121 118.84 389.121 117.736C389.121 116.664 389.481 115.8 390.201 115.144C390.921 114.472 391.969 114.096 393.345 114.016L396.849 113.824V113.176C396.849 112.424 396.658 111.88 396.274 111.544C395.906 111.208 395.322 111.04 394.521 111.04C393.737 111.04 393.145 111.168 392.745 111.424C392.361 111.664 392.121 112.08 392.025 112.672H389.697C389.953 110.304 391.617 109.12 394.689 109.12C396.082 109.12 397.154 109.464 397.905 110.152C398.674 110.824 399.058 111.792 399.058 113.056V118.696C399.058 118.952 399.186 119.08 399.442 119.08H400.426V121H398.554C397.721 121 397.305 120.6 397.305 119.8V119.464C396.586 120.712 395.306 121.336 393.465 121.336ZM391.449 117.664C391.449 118.192 391.649 118.616 392.049 118.936C392.465 119.256 393.026 119.416 393.73 119.416C394.69 119.416 395.45 119.152 396.01 118.624C396.569 118.08 396.849 117.328 396.849 116.368V115.624L393.633 115.864C392.913 115.912 392.369 116.104 392.001 116.44C391.633 116.76 391.449 117.168 391.449 117.664ZM403.36 121V109.456H405.424V111.328C405.744 110.08 406.584 109.456 407.944 109.456H410.152V111.496H407.728C406.368 111.496 405.688 112.288 405.688 113.872V121H403.36ZM417.198 121.336C415.47 121.336 414.078 120.776 413.022 119.656C411.966 118.536 411.438 117.04 411.438 115.168C411.438 113.328 411.95 111.864 412.974 110.776C414.014 109.672 415.366 109.12 417.03 109.12C418.742 109.12 420.094 109.64 421.086 110.68C422.078 111.704 422.574 113.104 422.574 114.88C422.574 115.136 422.55 115.504 422.502 115.984H413.742C413.79 117.04 414.118 117.872 414.726 118.48C415.35 119.072 416.174 119.368 417.198 119.368C418.574 119.368 419.502 118.816 419.982 117.712H422.358C421.99 118.848 421.366 119.736 420.486 120.376C419.606 121.016 418.51 121.336 417.198 121.336ZM413.742 114.16H420.222V114.04C420.222 113.128 419.934 112.392 419.358 111.832C418.798 111.272 418.022 110.992 417.03 110.992C416.07 110.992 415.294 111.288 414.702 111.88C414.11 112.456 413.79 113.216 413.742 114.16ZM432.744 121V104.2H443.112V106.456H435.144V111.04H443.112V113.296H435.144V118.744H443.112V121H432.744ZM446.694 121V109.456H448.758V110.968C449.446 109.736 450.662 109.12 452.406 109.12C453.846 109.12 454.974 109.552 455.79 110.416C456.606 111.264 457.014 112.472 457.014 114.04V121H454.686V114.256C454.686 112.24 453.782 111.232 451.974 111.232C451.078 111.232 450.358 111.52 449.814 112.096C449.286 112.656 449.022 113.4 449.022 114.328V121H446.694ZM463.474 125.32C462.242 125.32 461.314 125.056 460.69 124.528C460.066 124.016 459.754 123.32 459.754 122.44C459.754 121.368 460.258 120.584 461.266 120.088C460.562 119.624 460.21 119 460.21 118.216C460.21 117.08 460.874 116.344 462.202 116.008C461.178 115.32 460.666 114.344 460.666 113.08C460.666 111.928 461.082 110.984 461.914 110.248C462.746 109.496 463.866 109.12 465.274 109.12C466.17 109.12 466.97 109.32 467.674 109.72C468.378 110.12 468.85 110.632 469.09 111.256V110.896C469.09 109.936 469.57 109.456 470.53 109.456H472.234V111.496H470.386C470.05 111.496 469.882 111.664 469.882 112V113.224C469.882 114.408 469.466 115.368 468.634 116.104C467.802 116.824 466.722 117.184 465.394 117.184H463.402C462.65 117.184 462.274 117.496 462.274 118.12C462.274 118.424 462.378 118.656 462.586 118.816C462.81 118.976 463.082 119.056 463.402 119.056H467.602C468.722 119.056 469.602 119.312 470.242 119.824C470.898 120.336 471.226 121.064 471.226 122.008C471.226 123.016 470.914 123.816 470.29 124.408C469.666 125.016 468.722 125.32 467.458 125.32H463.474ZM461.986 122.224C461.986 123.104 462.57 123.544 463.738 123.544H467.314C467.81 123.544 468.21 123.424 468.514 123.184C468.834 122.944 468.994 122.576 468.994 122.08C468.994 121.696 468.85 121.392 468.562 121.168C468.29 120.944 467.914 120.832 467.434 120.832H463.81C463.202 120.832 462.746 120.96 462.442 121.216C462.138 121.488 461.986 121.824 461.986 122.224ZM463.522 111.544C463.106 111.944 462.898 112.48 462.898 113.152C462.898 113.824 463.106 114.36 463.522 114.76C463.954 115.16 464.538 115.36 465.274 115.36C466.026 115.36 466.61 115.16 467.026 114.76C467.442 114.36 467.65 113.824 467.65 113.152C467.65 112.48 467.434 111.944 467.002 111.544C466.586 111.144 466.01 110.944 465.274 110.944C464.522 110.944 463.938 111.144 463.522 111.544ZM474.888 121V109.456H477.216V121H474.888ZM474.744 107.128V104.368H477.336V107.128H474.744ZM481.321 121V109.456H483.385V110.968C484.073 109.736 485.289 109.12 487.033 109.12C488.473 109.12 489.601 109.552 490.417 110.416C491.233 111.264 491.641 112.472 491.641 114.04V121H489.313V114.256C489.313 112.24 488.409 111.232 486.601 111.232C485.705 111.232 484.985 111.52 484.441 112.096C483.913 112.656 483.649 113.4 483.649 114.328V121H481.321ZM500.597 121.336C498.869 121.336 497.477 120.776 496.421 119.656C495.365 118.536 494.837 117.04 494.837 115.168C494.837 113.328 495.349 111.864 496.373 110.776C497.413 109.672 498.765 109.12 500.429 109.12C502.141 109.12 503.493 109.64 504.485 110.68C505.477 111.704 505.973 113.104 505.973 114.88C505.973 115.136 505.949 115.504 505.901 115.984H497.141C497.189 117.04 497.517 117.872 498.125 118.48C498.749 119.072 499.573 119.368 500.597 119.368C501.973 119.368 502.901 118.816 503.381 117.712H505.757C505.389 118.848 504.765 119.736 503.885 120.376C503.005 121.016 501.909 121.336 500.597 121.336ZM497.141 114.16H503.621V114.04C503.621 113.128 503.333 112.392 502.757 111.832C502.197 111.272 501.421 110.992 500.429 110.992C499.469 110.992 498.693 111.288 498.101 111.88C497.509 112.456 497.189 113.216 497.141 114.16ZM514.226 121.336C512.498 121.336 511.106 120.776 510.05 119.656C508.994 118.536 508.466 117.04 508.466 115.168C508.466 113.328 508.978 111.864 510.002 110.776C511.042 109.672 512.394 109.12 514.058 109.12C515.77 109.12 517.122 109.64 518.114 110.68C519.106 111.704 519.602 113.104 519.602 114.88C519.602 115.136 519.578 115.504 519.53 115.984H510.77C510.818 117.04 511.146 117.872 511.754 118.48C512.378 119.072 513.202 119.368 514.226 119.368C515.602 119.368 516.53 118.816 517.01 117.712H519.386C519.018 118.848 518.394 119.736 517.514 120.376C516.634 121.016 515.538 121.336 514.226 121.336ZM510.77 114.16H517.25V114.04C517.25 113.128 516.962 112.392 516.386 111.832C515.826 111.272 515.05 110.992 514.058 110.992C513.098 110.992 512.322 111.288 511.73 111.88C511.138 112.456 510.818 113.216 510.77 114.16ZM522.886 121V109.456H524.95V111.328C525.27 110.08 526.11 109.456 527.47 109.456H529.678V111.496H527.254C525.894 111.496 525.214 112.288 525.214 113.872V121H522.886Z" fill="#767382"/>
<defs>
<linearGradient id="paint0_linear_452_6844" x1="113.743" y1="145.684" x2="121.431" y2="81.379" gradientUnits="userSpaceOnUse">
<stop stop-color="#6C6B71"/>
<stop offset="1" stop-color="#231F20"/>
</linearGradient>
<linearGradient id="paint1_linear_452_6844" x1="124.545" y1="75.5796" x2="124.858" y2="105.554" gradientUnits="userSpaceOnUse">
<stop stop-color="white"/>
<stop offset="1" stop-color="#D6D6D6"/>
</linearGradient>
</defs>
</svg>
