<svg width="250" height="188" viewBox="0 0 250 188" fill="none" xmlns="http://www.w3.org/2000/svg">
<path d="M125.453 105.553C151.073 105.553 171.843 81.9245 171.843 52.7767C171.843 23.629 151.073 1.52588e-05 125.453 1.52588e-05C99.8327 1.52588e-05 79.0634 23.629 79.0634 52.7767C79.0634 81.9245 99.8327 105.553 125.453 105.553Z" fill="#231F20"/>
<path d="M79.2568 57.5383C81.3711 84.4596 101.242 105.554 125.453 105.554C149.663 105.554 169.535 84.4458 171.649 57.5383H79.2568Z" fill="url(#paint0_linear_452_6846)"/>
<path fill-rule="evenodd" clip-rule="evenodd" d="M171.57 46.445C172.212 53.1332 171.539 58.5072 171.539 58.5072L170.017 59.6017C166.786 70.0186 159.053 77.3593 150.037 77.3593C138.111 77.3593 128.438 64.5284 128.438 48.694C128.438 32.8596 138.111 20.0288 150.037 20.0288C155.187 20.0288 159.918 22.4222 163.63 26.4172C166.193 28.9485 167.979 32.128 169.214 35.4951C170.515 38.8172 171.34 42.5201 171.57 46.445ZM79.2567 57.5383C78.7731 55.0441 79.0864 50.585 79.2779 48.4704C79.9323 33.3 89.674 20.0426 100.911 20.0426C112.544 20.0426 121.982 32.8697 121.984 48.7009C121.982 64.5321 112.544 77.3592 100.911 77.3592C91.8765 77.3592 83.8087 70.4668 80.6529 59.9733C80.018 59.4264 79.4717 58.6468 79.2567 57.5383Z" fill="white"/>
<path d="M139.893 56.7769H110.998V69.5801H139.893V56.7769Z" fill="white"/>
<path d="M133.915 67.9913L115.866 67.9716C114.994 67.9755 114.441 68.7887 114.882 69.4572L123.812 83.1154C124.237 83.7704 125.331 83.7758 125.777 83.1169L134.912 69.478C135.358 68.8191 134.818 68.0005 133.946 67.9906L133.915 67.9913Z" fill="#F58120"/>
<path d="M149.024 63.0281C151.924 63.0281 154.276 60.6765 154.276 57.7757C154.276 54.8749 151.924 52.5234 149.024 52.5234C146.123 52.5234 143.771 54.8749 143.771 57.7757C143.771 60.6765 146.123 63.0281 149.024 63.0281Z" fill="#231F20"/>
<path d="M102.278 63.0281C105.179 63.0281 107.53 60.6765 107.53 57.7757C107.53 54.8749 105.179 52.5234 102.278 52.5234C99.3769 52.5234 97.0254 54.8749 97.0254 57.7757C97.0254 60.6765 99.3769 63.0281 102.278 63.0281Z" fill="#231F20"/>
<path d="M112.892 16.0136L102.541 13.7021L95.48 16.7056C95.48 16.7056 91.5831 18.9479 90.5467 20.0137C82.6009 28.1801 80.6386 38.561 80.459 39.5991C79.7404 42.4089 79.3396 45.2879 79.312 47.8346C79.8924 43.9314 82.366 36.4987 92.3431 32.6785C101.657 29.6611 114.246 31.4604 121.791 56.7484L124.9 43.6684L123.864 24.4429L112.905 15.9997L112.892 16.0136Z" fill="#231F20"/>
<path d="M83.582 30.0214C83.582 30.0214 108.027 12.9136 121.128 56.7765L124.237 43.6965L123.2 24.471L112.242 16.0278L101.892 13.7163L94.8305 16.7199L89.8972 20.028L83.5958 30.0075L83.582 30.0214Z" fill="#231F20"/>
<path d="M171.677 47.7792C171.663 45.2463 171.29 42.478 170.585 39.6959C170.599 39.7097 170.613 39.7236 170.613 39.7236C170.613 39.7236 170.447 39.1146 170.143 38.1042C170.074 37.855 169.991 37.6059 169.908 37.3567C168.512 32.9967 165.14 23.8061 160.511 20.0275C159.364 19.0863 155.578 16.7194 155.578 16.7194L148.516 13.7159L138.166 16.0274L127.208 24.4705L126.171 43.696L129.281 56.776C136.798 31.5988 149.318 29.7025 158.618 32.6645C168.678 36.4709 171.124 43.8621 171.704 47.7792H171.677Z" fill="#231F20"/>
<path d="M6.44 124.296V119.4H34.088V124.296H22.856V153H17.432V124.296H6.44ZM42.1644 148.056C46.2924 147.144 48.9804 143.112 48.9804 139.992L42.1644 141.864C36.5964 143.352 37.0284 146.184 37.0284 146.184C37.1724 148.872 42.1644 148.056 42.1644 148.056ZM57.7644 152.904C57.7644 152.904 50.0364 153.624 50.3244 145.656L49.1244 145.608C48.6444 148.728 46.2924 152.472 41.4924 153C31.1724 154.152 31.4124 147.048 31.4124 147.048C31.3644 140.328 41.4924 138.168 41.4924 138.168L49.0764 136.296C49.0764 134.568 47.6844 131.688 43.2684 131.688C36.8364 131.688 36.1164 135.24 36.1164 135.24L31.4124 133.416C31.4124 133.416 33.2844 127.08 43.2684 127.08C55.5084 127.08 54.4044 136.488 54.4044 136.488V145.8C54.4044 145.8 54.1644 148.104 57.8604 148.104L57.7644 152.904ZM66.917 139.656V153H61.445V127.176H67.349L65.861 134.04H67.253C67.877 129.528 70.805 127.464 74.357 127.176C84.965 126.312 84.485 138.072 84.485 138.072V153H79.013V139.992C79.013 139.992 79.685 132.024 73.733 132.312C73.733 132.312 66.917 132.264 66.917 139.656ZM94.6775 127.128V153H89.3015V127.128H94.6775ZM88.2455 120.456C88.2455 118.392 89.9255 116.712 91.9895 116.712C94.0055 116.712 95.6855 118.392 95.6855 120.456C95.6855 122.52 94.0055 124.152 91.9895 124.152C89.9255 124.152 88.2455 122.52 88.2455 120.456ZM109.672 148.056C113.8 147.144 116.488 143.112 116.488 139.992L109.672 141.864C104.104 143.352 104.536 146.184 104.536 146.184C104.68 148.872 109.672 148.056 109.672 148.056ZM125.272 152.904C125.272 152.904 117.544 153.624 117.832 145.656L116.632 145.608C116.152 148.728 113.8 152.472 109 153C98.6799 154.152 98.9199 147.048 98.9199 147.048C98.8719 140.328 109 138.168 109 138.168L116.584 136.296C116.584 134.568 115.192 131.688 110.776 131.688C104.344 131.688 103.624 135.24 103.624 135.24L98.9199 133.416C98.9199 133.416 100.792 127.08 110.776 127.08C123.016 127.08 121.912 136.488 121.912 136.488V145.8C121.912 145.8 121.672 148.104 125.368 148.104L125.272 152.904ZM143.189 124.296V119.4H170.837V124.296H159.605V153H154.181V124.296H143.189ZM180.478 132.072C180.478 132.072 174.094 132.504 174.43 137.448L187.582 135.72C187.582 134.808 186.574 131.544 180.478 132.072ZM192.718 137.448V138.744L174.382 141.096C174.382 148.392 181.342 148.104 181.342 148.104C187.102 148.104 187.582 142.968 187.582 142.968L192.478 144.552C192.478 144.552 191.326 153 181.534 153C181.534 153 168.958 153.576 168.958 140.088C168.958 126.456 181.534 127.128 181.534 127.128C192.574 127.128 192.718 137.064 192.718 137.448ZM202.505 152.616C196.073 150.456 196.601 143.352 196.601 143.352V119.4H201.977V144.504C201.977 144.504 201.737 147.96 205.433 147.96L205.577 153C205.577 153 204.041 153.144 202.505 152.616ZM214.585 152.616C208.153 150.456 208.681 143.352 208.681 143.352V119.4H214.057V144.504C214.057 144.504 213.817 147.96 217.513 147.96L217.657 153C217.657 153 216.121 153.144 214.585 152.616ZM232.014 148.152C234.174 148.152 238.686 147.528 238.686 140.088C238.686 132.6 234.27 132.024 232.014 132.024C229.614 132.024 225.342 132.6 225.342 140.088C225.342 147.528 229.71 148.152 232.014 148.152ZM244.062 140.088C244.062 151.8 235.758 153 232.014 153C228.126 153 219.966 151.8 219.966 140.088C219.966 128.136 228.126 127.128 232.014 127.128C235.47 127.128 244.062 128.136 244.062 140.088Z" fill="#242021"/>
<path d="M7.704 183.336C5.64 183.336 4.016 182.848 2.832 181.872C1.648 180.896 1.048 179.56 1.032 177.864H3.504C3.52 178.888 3.896 179.704 4.632 180.312C5.384 180.904 6.408 181.2 7.704 181.2C8.856 181.2 9.768 180.928 10.44 180.384C11.128 179.824 11.472 179.088 11.472 178.176C11.472 176.688 10.52 175.816 8.616 175.56L6.408 175.248C3.192 174.816 1.584 173.304 1.584 170.712C1.584 169.24 2.128 168.064 3.216 167.184C4.32 166.304 5.776 165.864 7.584 165.864C9.456 165.864 10.936 166.288 12.024 167.136C13.128 167.984 13.696 169.144 13.728 170.616H11.256C11.224 169.8 10.88 169.16 10.224 168.696C9.568 168.216 8.688 167.976 7.584 167.976C6.528 167.976 5.68 168.216 5.04 168.696C4.4 169.16 4.08 169.784 4.08 170.568C4.08 171.896 5.096 172.704 7.128 172.992L9.216 173.28C12.384 173.712 13.968 175.296 13.968 178.032C13.968 179.648 13.408 180.936 12.288 181.896C11.168 182.856 9.64 183.336 7.704 183.336ZM17.4223 183V171.456H19.4863V173.328C19.8063 172.08 20.6463 171.456 22.0063 171.456H24.2143V173.496H21.7903C20.4303 173.496 19.7503 174.288 19.7503 175.872V183H17.4223ZM25.1914 183V179.712H28.0714V183H25.1914ZM44.7334 183.336C42.6694 183.336 41.0454 182.848 39.8614 181.872C38.6774 180.896 38.0774 179.56 38.0614 177.864H40.5334C40.5494 178.888 40.9254 179.704 41.6614 180.312C42.4134 180.904 43.4374 181.2 44.7334 181.2C45.8854 181.2 46.7974 180.928 47.4694 180.384C48.1574 179.824 48.5014 179.088 48.5014 178.176C48.5014 176.688 47.5494 175.816 45.6454 175.56L43.4374 175.248C40.2214 174.816 38.6134 173.304 38.6134 170.712C38.6134 169.24 39.1574 168.064 40.2454 167.184C41.3494 166.304 42.8054 165.864 44.6134 165.864C46.4854 165.864 47.9654 166.288 49.0534 167.136C50.1574 167.984 50.7254 169.144 50.7574 170.616H48.2854C48.2534 169.8 47.9094 169.16 47.2534 168.696C46.5974 168.216 45.7174 167.976 44.6134 167.976C43.5574 167.976 42.7094 168.216 42.0694 168.696C41.4294 169.16 41.1094 169.784 41.1094 170.568C41.1094 171.896 42.1254 172.704 44.1574 172.992L46.2454 173.28C49.4134 173.712 50.9974 175.296 50.9974 178.032C50.9974 179.648 50.4374 180.936 49.3174 181.896C48.1974 182.856 46.6694 183.336 44.7334 183.336ZM59.6586 183.336C57.8986 183.336 56.4666 182.776 55.3626 181.656C54.2586 180.52 53.7066 179.04 53.7066 177.216C53.7066 175.392 54.2586 173.92 55.3626 172.8C56.4666 171.68 57.8986 171.12 59.6586 171.12C61.4346 171.12 62.8666 171.68 63.9546 172.8C65.0586 173.92 65.6106 175.392 65.6106 177.216C65.6106 179.04 65.0586 180.52 63.9546 181.656C62.8666 182.776 61.4346 183.336 59.6586 183.336ZM56.1066 177.216C56.1066 178.416 56.4346 179.384 57.0906 180.12C57.7466 180.856 58.6026 181.224 59.6586 181.224C60.7306 181.224 61.5866 180.856 62.2266 180.12C62.8826 179.384 63.2106 178.416 63.2106 177.216C63.2106 176.032 62.8826 175.072 62.2266 174.336C61.5866 173.6 60.7306 173.232 59.6586 173.232C58.6026 173.232 57.7466 173.6 57.0906 174.336C56.4346 175.072 56.1066 176.032 56.1066 177.216ZM70.1055 169.344C70.1055 168.336 70.3775 167.56 70.9215 167.016C71.4815 166.472 72.2655 166.2 73.2735 166.2H77.0175V168.24H73.7535C72.8575 168.24 72.4095 168.688 72.4095 169.584V171.456H76.2975V173.496H72.4095V183H70.1055V173.496H67.0575V171.456H70.1055V169.344ZM83.9164 183C82.9084 183 82.1804 182.784 81.7324 182.352C81.2844 181.92 81.0604 181.208 81.0604 180.216V173.496H78.0364V171.456H81.0604V168H83.3884V171.456H87.0124V173.496H83.3884V179.76C83.3884 180.192 83.4764 180.504 83.6524 180.696C83.8444 180.872 84.1644 180.96 84.6124 180.96H87.0124V183H83.9164ZM92.2007 183L88.6247 171.456H91.0487L93.6167 180.408L96.1847 171.456H98.8487L101.417 180.408L103.985 171.456H106.409L102.833 183H100.097L97.5287 174.096L94.9367 183H92.2007ZM112.465 183.336C111.137 183.336 110.081 183.016 109.297 182.376C108.513 181.72 108.121 180.84 108.121 179.736C108.121 178.664 108.481 177.8 109.201 177.144C109.921 176.472 110.969 176.096 112.345 176.016L115.849 175.824V175.176C115.849 174.424 115.658 173.88 115.274 173.544C114.906 173.208 114.322 173.04 113.521 173.04C112.737 173.04 112.145 173.168 111.745 173.424C111.361 173.664 111.121 174.08 111.025 174.672H108.697C108.953 172.304 110.617 171.12 113.689 171.12C115.082 171.12 116.154 171.464 116.905 172.152C117.674 172.824 118.058 173.792 118.058 175.056V180.696C118.058 180.952 118.186 181.08 118.442 181.08H119.426V183H117.554C116.721 183 116.305 182.6 116.305 181.8V181.464C115.586 182.712 114.306 183.336 112.465 183.336ZM110.449 179.664C110.449 180.192 110.649 180.616 111.049 180.936C111.465 181.256 112.026 181.416 112.73 181.416C113.69 181.416 114.45 181.152 115.01 180.624C115.569 180.08 115.849 179.328 115.849 178.368V177.624L112.633 177.864C111.913 177.912 111.369 178.104 111.001 178.44C110.633 178.76 110.449 179.168 110.449 179.664ZM122.36 183V171.456H124.424V173.328C124.744 172.08 125.584 171.456 126.944 171.456H129.152V173.496H126.728C125.368 173.496 124.688 174.288 124.688 175.872V183H122.36ZM136.198 183.336C134.47 183.336 133.078 182.776 132.022 181.656C130.966 180.536 130.438 179.04 130.438 177.168C130.438 175.328 130.95 173.864 131.974 172.776C133.014 171.672 134.366 171.12 136.03 171.12C137.742 171.12 139.094 171.64 140.086 172.68C141.078 173.704 141.574 175.104 141.574 176.88C141.574 177.136 141.55 177.504 141.502 177.984H132.742C132.79 179.04 133.118 179.872 133.726 180.48C134.35 181.072 135.174 181.368 136.198 181.368C137.574 181.368 138.502 180.816 138.982 179.712H141.358C140.99 180.848 140.366 181.736 139.486 182.376C138.606 183.016 137.51 183.336 136.198 183.336ZM132.742 176.16H139.222V176.04C139.222 175.128 138.934 174.392 138.358 173.832C137.798 173.272 137.022 172.992 136.03 172.992C135.07 172.992 134.294 173.288 133.702 173.88C133.11 174.456 132.79 175.216 132.742 176.16ZM151.744 183V166.2H162.112V168.456H154.144V173.04H162.112V175.296H154.144V180.744H162.112V183H151.744ZM165.694 183V171.456H167.758V172.968C168.446 171.736 169.662 171.12 171.406 171.12C172.846 171.12 173.974 171.552 174.79 172.416C175.606 173.264 176.014 174.472 176.014 176.04V183H173.686V176.256C173.686 174.24 172.782 173.232 170.974 173.232C170.078 173.232 169.358 173.52 168.814 174.096C168.286 174.656 168.022 175.4 168.022 176.328V183H165.694ZM182.474 187.32C181.242 187.32 180.314 187.056 179.69 186.528C179.066 186.016 178.754 185.32 178.754 184.44C178.754 183.368 179.258 182.584 180.266 182.088C179.562 181.624 179.21 181 179.21 180.216C179.21 179.08 179.874 178.344 181.202 178.008C180.178 177.32 179.666 176.344 179.666 175.08C179.666 173.928 180.082 172.984 180.914 172.248C181.746 171.496 182.866 171.12 184.274 171.12C185.17 171.12 185.97 171.32 186.674 171.72C187.378 172.12 187.85 172.632 188.09 173.256V172.896C188.09 171.936 188.57 171.456 189.53 171.456H191.234V173.496H189.386C189.05 173.496 188.882 173.664 188.882 174V175.224C188.882 176.408 188.466 177.368 187.634 178.104C186.802 178.824 185.722 179.184 184.394 179.184H182.402C181.65 179.184 181.274 179.496 181.274 180.12C181.274 180.424 181.378 180.656 181.586 180.816C181.81 180.976 182.082 181.056 182.402 181.056H186.602C187.722 181.056 188.602 181.312 189.242 181.824C189.898 182.336 190.226 183.064 190.226 184.008C190.226 185.016 189.914 185.816 189.29 186.408C188.666 187.016 187.722 187.32 186.458 187.32H182.474ZM180.986 184.224C180.986 185.104 181.57 185.544 182.738 185.544H186.314C186.81 185.544 187.21 185.424 187.514 185.184C187.834 184.944 187.994 184.576 187.994 184.08C187.994 183.696 187.85 183.392 187.562 183.168C187.29 182.944 186.914 182.832 186.434 182.832H182.81C182.202 182.832 181.746 182.96 181.442 183.216C181.138 183.488 180.986 183.824 180.986 184.224ZM182.522 173.544C182.106 173.944 181.898 174.48 181.898 175.152C181.898 175.824 182.106 176.36 182.522 176.76C182.954 177.16 183.538 177.36 184.274 177.36C185.026 177.36 185.61 177.16 186.026 176.76C186.442 176.36 186.65 175.824 186.65 175.152C186.65 174.48 186.434 173.944 186.002 173.544C185.586 173.144 185.01 172.944 184.274 172.944C183.522 172.944 182.938 173.144 182.522 173.544ZM193.888 183V171.456H196.216V183H193.888ZM193.744 169.128V166.368H196.336V169.128H193.744ZM200.321 183V171.456H202.385V172.968C203.073 171.736 204.289 171.12 206.033 171.12C207.473 171.12 208.601 171.552 209.417 172.416C210.233 173.264 210.641 174.472 210.641 176.04V183H208.313V176.256C208.313 174.24 207.409 173.232 205.601 173.232C204.705 173.232 203.985 173.52 203.441 174.096C202.913 174.656 202.649 175.4 202.649 176.328V183H200.321ZM219.597 183.336C217.869 183.336 216.477 182.776 215.421 181.656C214.365 180.536 213.837 179.04 213.837 177.168C213.837 175.328 214.349 173.864 215.373 172.776C216.413 171.672 217.765 171.12 219.429 171.12C221.141 171.12 222.493 171.64 223.485 172.68C224.477 173.704 224.973 175.104 224.973 176.88C224.973 177.136 224.949 177.504 224.901 177.984H216.141C216.189 179.04 216.517 179.872 217.125 180.48C217.749 181.072 218.573 181.368 219.597 181.368C220.973 181.368 221.901 180.816 222.381 179.712H224.757C224.389 180.848 223.765 181.736 222.885 182.376C222.005 183.016 220.909 183.336 219.597 183.336ZM216.141 176.16H222.621V176.04C222.621 175.128 222.333 174.392 221.757 173.832C221.197 173.272 220.421 172.992 219.429 172.992C218.469 172.992 217.693 173.288 217.101 173.88C216.509 174.456 216.189 175.216 216.141 176.16ZM233.226 183.336C231.498 183.336 230.106 182.776 229.05 181.656C227.994 180.536 227.466 179.04 227.466 177.168C227.466 175.328 227.978 173.864 229.002 172.776C230.042 171.672 231.394 171.12 233.058 171.12C234.77 171.12 236.122 171.64 237.114 172.68C238.106 173.704 238.602 175.104 238.602 176.88C238.602 177.136 238.578 177.504 238.53 177.984H229.77C229.818 179.04 230.146 179.872 230.754 180.48C231.378 181.072 232.202 181.368 233.226 181.368C234.602 181.368 235.53 180.816 236.01 179.712H238.386C238.018 180.848 237.394 181.736 236.514 182.376C235.634 183.016 234.538 183.336 233.226 183.336ZM229.77 176.16H236.25V176.04C236.25 175.128 235.962 174.392 235.386 173.832C234.826 173.272 234.05 172.992 233.058 172.992C232.098 172.992 231.322 173.288 230.73 173.88C230.138 174.456 229.818 175.216 229.77 176.16ZM241.886 183V171.456H243.95V173.328C244.27 172.08 245.11 171.456 246.47 171.456H248.678V173.496H246.254C244.894 173.496 244.214 174.288 244.214 175.872V183H241.886Z" fill="#767382"/>
<defs>
<linearGradient id="paint0_linear_452_6846" x1="125.14" y1="75.5796" x2="125.453" y2="105.554" gradientUnits="userSpaceOnUse">
<stop stop-color="white"/>
<stop offset="1" stop-color="#D6D6D6"/>
</linearGradient>
</defs>
</svg>
