<svg width="143" height="134" viewBox="0 0 143 134" fill="none" xmlns="http://www.w3.org/2000/svg">
<g id="Graphics" clip-path="url(#clip0_369_625)" filter="url(#filter0_d_369_625)">
<path id="Vector" d="M74.2256 76.958C79.8132 75.3366 83.0312 69.5018 81.4132 63.9256C79.7951 58.3494 73.9537 55.1434 68.3661 56.7647C62.7785 58.3861 59.5605 64.2209 61.1785 69.7971C62.7966 75.3733 68.638 78.5794 74.2256 76.958Z" fill="#61DAFB" stroke="#231F20" stroke-width="2" stroke-miterlimit="10"/>
<path id="Vector_2" d="M105.602 39.1836C103.226 38.9913 100.718 38.9166 98.1234 38.9527C98.0502 36.3624 97.8781 33.8634 97.5861 31.5016C96.08 19.3362 91.7132 11.7731 85.2879 10.201C78.8677 8.62746 71.4699 13.3117 64.4748 23.3922C63.1162 25.3511 61.7958 27.4809 60.5255 29.7442C58.2411 28.5124 55.991 27.4186 53.7896 26.4928C42.4799 21.7238 33.7275 21.7202 29.1484 26.4911C24.5625 31.2583 24.9238 39.9894 30.1619 51.0662C31.1795 53.2175 32.3665 55.422 33.6965 57.6476C31.4852 59.0061 29.4073 60.4113 27.5031 61.8457C17.6995 69.2421 13.3154 76.807 15.1564 83.1515C16.9974 89.496 24.7498 93.5391 36.9845 94.5406C39.3607 94.733 41.8681 94.8077 44.4631 94.7716C44.5363 97.3618 44.7084 99.8608 45.0004 102.223C46.5065 114.388 50.8733 121.951 57.2986 123.523C59.1652 123.983 61.1171 123.912 63.1154 123.332C67.99 121.917 73.1516 117.484 78.1132 110.337C79.4718 108.378 80.7922 106.249 82.0625 103.985C84.3469 105.217 86.5971 106.311 88.7984 107.237C96.8147 110.617 103.548 111.599 108.422 110.185C110.421 109.605 112.108 108.621 113.438 107.233C118.024 102.466 117.663 93.7348 112.425 82.658C111.407 80.5068 110.22 78.3023 108.89 76.0767C111.101 74.7182 113.179 73.313 115.083 71.8785C124.882 64.4837 129.266 56.9188 127.425 50.5743C125.584 44.2298 117.831 40.1867 105.597 39.1852L105.602 39.1836ZM80.5296 14.0795C81.8863 13.6858 83.1795 13.6235 84.3702 13.9152C90.0165 15.298 93.9313 24.7219 94.3293 39.0807C89.0408 39.3636 83.4177 40.0849 77.6329 41.2116C73.0311 37.5344 68.3858 34.2965 63.8312 31.607C69.3861 21.7111 75.4499 15.5535 80.5349 14.078L80.5296 14.0795ZM90.3898 71.5393C89.464 75.2843 88.4345 78.8489 87.3261 82.2201C83.9985 83.4645 80.4728 84.6355 76.7656 85.7112C73.0583 86.787 69.4535 87.6851 65.9767 88.4151C63.2343 86.1556 60.4582 83.701 57.6716 81.0333C54.885 78.3655 52.3149 75.6975 49.9412 73.0579C50.5333 69.5577 51.2761 65.9284 52.2019 62.1834C53.1278 58.4384 54.1573 54.8738 55.2657 51.5026C58.5933 50.2582 62.119 49.0873 65.8262 48.0115C69.5334 46.9358 73.1382 46.0377 76.6151 45.3076C79.3574 47.5672 82.1335 50.0218 84.9201 52.6895C87.7068 55.3572 90.2769 58.0252 92.6506 60.6649C92.0585 64.1651 91.3157 67.7944 90.3898 71.5393ZM95.8681 64.3853C98.8339 67.9455 101.42 71.4339 103.611 74.7808C100.108 76.7362 96.1995 78.6326 91.9113 80.4174C92.7081 77.8193 93.4416 75.16 94.1147 72.4499C94.7841 69.7465 95.3648 67.0518 95.8733 64.3838L95.8681 64.3853ZM80.5526 98.7623C77.1087 96.7177 73.5175 94.2834 69.8288 91.4735C72.4781 90.8584 75.1497 90.1628 77.8315 89.3846C80.5133 88.6064 83.1423 87.7639 85.7094 86.8654C84.1029 91.2119 82.3672 95.1919 80.5526 98.7623ZM61.1387 89.3468C56.5611 90.1345 52.2449 90.6245 48.2391 90.8481C48.2985 86.8482 48.6102 82.519 49.2149 77.9227C51.0674 79.9057 53.0055 81.8695 55.0179 83.7946C57.0319 85.725 59.0802 87.5772 61.1439 89.3452L61.1387 89.3468ZM46.7237 69.3375C43.7579 65.7772 41.1721 62.2888 38.9809 58.9419C42.4842 56.9866 46.3922 55.0902 50.6805 53.3053C49.8836 55.9034 49.1502 58.5628 48.4771 61.2729C47.8077 63.9762 47.227 66.6709 46.7184 69.339L46.7237 69.3375ZM62.0391 34.9604C65.483 37.005 69.0795 39.4378 72.763 42.2492C70.1137 42.8644 67.4406 43.5547 64.7587 44.3329C62.0769 45.111 59.448 45.9536 56.8824 46.8573C58.4889 42.5109 60.2246 38.5309 62.0391 34.9604ZM87.5738 49.9281C85.5599 47.9977 83.5116 46.1455 81.4478 44.3775C86.0254 43.5898 90.3415 43.0997 94.3474 42.8761C94.288 46.8761 93.9763 51.2053 93.3716 55.8015C91.5191 53.8186 89.581 51.8548 87.5686 49.9296L87.5738 49.9281ZM31.9116 29.1372C32.7612 28.2535 33.8816 27.6154 35.2436 27.2202C40.3285 25.7447 48.7465 27.7001 58.7357 33.0856C56.3349 37.7991 54.139 43.0221 52.2187 48.5861C46.7226 50.7271 41.5883 53.133 36.9751 55.7233C29.6254 43.3817 27.8876 33.326 31.9169 29.1357L31.9116 29.1372ZM18.8373 82.0834C17.2202 76.5103 23.4365 68.4024 35.6955 60.8625C38.5779 65.2946 42.0103 69.7948 45.8817 74.2359C44.9888 80.0594 44.4984 85.6978 44.4361 90.9845C30.0452 91.1776 20.4545 87.6565 18.8373 82.0834ZM58.2216 119.808C52.5752 118.425 48.6605 109.001 48.2625 94.642C53.551 94.3592 59.174 93.6378 64.9588 92.5111C69.5606 96.1884 74.2044 99.421 78.7553 102.117C71.7142 114.652 63.8627 121.192 58.2163 119.809L58.2216 119.808ZM110.675 104.587C106.646 108.777 96.5079 107.458 83.8561 100.637C86.2569 95.9237 88.4543 90.7059 90.373 85.1366C95.8692 82.9956 101.003 80.5898 105.617 77.9994C112.966 90.3411 114.704 100.397 110.675 104.587ZM106.891 72.8618C104.009 68.4296 100.576 63.9295 96.7048 59.4884C97.5977 53.6649 98.0881 48.0265 98.1504 42.7398C112.541 42.5467 122.132 46.0678 123.749 51.6409C125.366 57.214 119.15 65.3219 106.891 72.8618Z" fill="#61DAFB" stroke="#231F20" stroke-width="2" stroke-miterlimit="10"/>
</g>
<defs>
<filter id="filter0_d_369_625" x="-4" y="0" width="150.586" height="141.724" filterUnits="userSpaceOnUse" color-interpolation-filters="sRGB">
<feFlood flood-opacity="0" result="BackgroundImageFix"/>
<feColorMatrix in="SourceAlpha" type="matrix" values="0 0 0 0 0 0 0 0 0 0 0 0 0 0 0 0 0 0 127 0" result="hardAlpha"/>
<feOffset dy="4"/>
<feGaussianBlur stdDeviation="2"/>
<feComposite in2="hardAlpha" operator="out"/>
<feColorMatrix type="matrix" values="0 0 0 0 0 0 0 0 0 0 0 0 0 0 0 0 0 0 0.25 0"/>
<feBlend mode="normal" in2="BackgroundImageFix" result="effect1_dropShadow_369_625"/>
<feBlend mode="normal" in="SourceGraphic" in2="effect1_dropShadow_369_625" result="shape"/>
</filter>
<clipPath id="clip0_369_625">
<rect width="118" height="105" fill="white" transform="translate(0 32.8839) rotate(-16.1812)"/>
</clipPath>
</defs>
</svg>
